<svg width="1000" height="760" viewBox="0 0 1000 760" fill="none" xmlns="http://www.w3.org/2000/svg" role="img" aria-labelledby="title desc">
  <title id="title">3D contact support illustration</title>
  <desc id="desc">A liquid-glass support illustration with phone, chat bubbles, and an enquiry form panel.</desc>
  <defs>
    <linearGradient id="bg" x1="0" y1="0" x2="1000" y2="760" gradientUnits="userSpaceOnUse"><stop stop-color="#08173A"/><stop offset="1" stop-color="#050816"/></linearGradient>
    <linearGradient id="glass" x1="170" y1="105" x2="824" y2="639" gradientUnits="userSpaceOnUse"><stop stop-color="#FFFFFF" stop-opacity=".32"/><stop offset=".52" stop-color="#7DEEFF" stop-opacity=".11"/><stop offset="1" stop-color="#FF77C8" stop-opacity=".15"/></linearGradient>
    <linearGradient id="edge" x1="114" y1="85" x2="888" y2="708" gradientUnits="userSpaceOnUse"><stop stop-color="#22D3EE"/><stop offset=".5" stop-color="#9B7BFF"/><stop offset="1" stop-color="#FF77C8"/></linearGradient>
    <filter id="shadow" x="0" y="0" width="1000" height="760" filterUnits="userSpaceOnUse"><feDropShadow dx="0" dy="36" stdDeviation="36" flood-color="#00091D" flood-opacity=".62"/></filter>
  </defs>
  <rect width="1000" height="760" rx="46" fill="url(#bg)"/>
  <path d="M92 520C196 392 301 402 406 514C512 627 635 632 752 478C827 379 893 366 940 402" stroke="url(#edge)" stroke-opacity=".28" stroke-width="44" stroke-linecap="round"/>
  <g filter="url(#shadow)">
    <rect x="142" y="130" width="378" height="474" rx="64" fill="url(#glass)" stroke="white" stroke-opacity=".25" stroke-width="2"/>
    <rect x="192" y="184" width="278" height="364" rx="38" fill="#071225" fill-opacity=".72" stroke="white" stroke-opacity=".18" stroke-width="2"/>
    <path d="M228 253H423M228 315H370M228 378H426M228 440H331" stroke="#DDFBFF" stroke-opacity=".54" stroke-width="18" stroke-linecap="round"/>
    <rect x="238" y="484" width="176" height="42" rx="21" fill="#22D3EE" fill-opacity=".32"/>
    <rect x="556" y="183" width="292" height="154" rx="48" fill="url(#glass)" stroke="white" stroke-opacity=".24" stroke-width="2"/>
    <path d="M620 255H784M620 292H734" stroke="white" stroke-opacity=".48" stroke-width="17" stroke-linecap="round"/>
    <rect x="513" y="400" width="332" height="182" rx="48" fill="url(#glass)" stroke="white" stroke-opacity=".24" stroke-width="2"/>
    <circle cx="608" cy="491" r="47" fill="#7DEEFF" fill-opacity=".24" stroke="white" stroke-opacity=".34" stroke-width="2"/>
    <path d="M680 462H791M680 506H749" stroke="white" stroke-opacity=".5" stroke-width="18" stroke-linecap="round"/>
  </g>
  <circle cx="807" cy="119" r="46" fill="#FF77C8" fill-opacity=".2" stroke="white" stroke-opacity=".22" stroke-width="2"/>
  <circle cx="118" cy="629" r="38" fill="#22D3EE" fill-opacity=".22" stroke="white" stroke-opacity=".22" stroke-width="2"/>
</svg>
