<svg width="1200" height="760" viewBox="0 0 1200 760" fill="none" xmlns="http://www.w3.org/2000/svg" role="img" aria-labelledby="title desc">
  <title id="title">3D academic support service icons</title>
  <desc id="desc">A set of glossy liquid-glass icons for tutoring, referencing, proofreading, planning, and research support.</desc>
  <defs>
    <linearGradient id="bg" x1="0" y1="0" x2="1200" y2="760" gradientUnits="userSpaceOnUse"><stop stop-color="#06122C"/><stop offset="1" stop-color="#050816"/></linearGradient>
    <linearGradient id="card" x1="132" y1="88" x2="1045" y2="686" gradientUnits="userSpaceOnUse"><stop stop-color="#FFFFFF" stop-opacity=".28"/><stop offset=".5" stop-color="#7DEEFF" stop-opacity=".1"/><stop offset="1" stop-color="#FF77C8" stop-opacity=".15"/></linearGradient>
    <linearGradient id="accent" x1="200" y1="120" x2="1000" y2="680" gradientUnits="userSpaceOnUse"><stop stop-color="#22D3EE"/><stop offset=".5" stop-color="#9B7BFF"/><stop offset="1" stop-color="#FF77C8"/></linearGradient>
    <filter id="shadow" x="0" y="0" width="1200" height="760" filterUnits="userSpaceOnUse"><feDropShadow dx="0" dy="30" stdDeviation="32" flood-color="#00091D" flood-opacity=".58"/></filter>
  </defs>
  <rect width="1200" height="760" rx="48" fill="url(#bg)"/>
  <path d="M78 560C230 414 373 433 508 548C640 660 760 632 893 486C997 372 1078 370 1132 416" stroke="url(#accent)" stroke-opacity=".28" stroke-width="42" stroke-linecap="round"/>
  <g filter="url(#shadow)">
    <rect x="112" y="95" width="280" height="220" rx="44" fill="url(#card)" stroke="white" stroke-opacity=".22" stroke-width="2"/>
    <rect x="460" y="66" width="280" height="220" rx="44" fill="url(#card)" stroke="white" stroke-opacity=".22" stroke-width="2"/>
    <rect x="808" y="105" width="280" height="220" rx="44" fill="url(#card)" stroke="white" stroke-opacity=".22" stroke-width="2"/>
    <rect x="196" y="405" width="280" height="220" rx="44" fill="url(#card)" stroke="white" stroke-opacity=".22" stroke-width="2"/>
    <rect x="548" y="389" width="280" height="220" rx="44" fill="url(#card)" stroke="white" stroke-opacity=".22" stroke-width="2"/>
  </g>
  <g stroke-linecap="round" stroke-linejoin="round">
    <path d="M207 195C229 163 280 164 302 195V257H207V195Z" fill="#22D3EE" fill-opacity=".22" stroke="white" stroke-opacity=".58" stroke-width="13"/>
    <path d="M511 182H688M532 229H644M532 266H675" stroke="#DDFBFF" stroke-opacity=".68" stroke-width="16"/>
    <path d="M904 172H996C1019 172 1037 191 1037 214V249C1037 272 1019 291 996 291H904C881 291 862 272 862 249V214C862 191 881 172 904 172Z" fill="#9B7BFF" fill-opacity=".2" stroke="white" stroke-opacity=".55" stroke-width="12"/>
    <path d="M914 231H986" stroke="#7DEEFF" stroke-opacity=".85" stroke-width="15"/>
    <path d="M281 493L341 457L403 493V579H281V493Z" fill="#FF77C8" fill-opacity=".18" stroke="white" stroke-opacity=".55" stroke-width="12"/>
    <path d="M628 516C668 470 742 477 772 531C742 583 665 589 628 516Z" fill="#22D3EE" fill-opacity=".18" stroke="white" stroke-opacity=".55" stroke-width="12"/>
    <circle cx="704" cy="525" r="26" fill="#7DEEFF" fill-opacity=".36" stroke="white" stroke-opacity=".5" stroke-width="9"/>
  </g>
  <g fill="white" fill-opacity=".16">
    <circle cx="101" cy="109" r="42"/>
    <circle cx="1103" cy="574" r="52"/>
    <circle cx="940" cy="640" r="28"/>
  </g>
</svg>
